<svg xmlns="http://www.w3.org/2000/svg" width="101.048" height="95.963" viewBox="0 0 101.048 95.963">
  <g id="Group_38" data-name="Group 38" transform="translate(-903.952 -70)">
    <path id="Path_70" data-name="Path 70" d="M1000.927,255.913q-14.327-13.475-35.833-13.469-21.071,0-35.833,13.748a45.572,45.572,0,0,0-14.907,34.523q0,21.347,14.767,34.664a50.266,50.266,0,0,0,5.773,4.528l7.019-7.018.043-.043.247.2a2.486,2.486,0,0,1-.247-.214,34.281,34.281,0,0,1-2.522-2.469q-10.882-11.9-10.893-32.516,0-17.194,9.39-27.935A30.3,30.3,0,0,1,961.8,249.173q17.628,0,28.235,11.321,11.171,11.88,11.182,32.228,0,13.876-5.849,23.566a34.868,34.868,0,0,1-3.4,4.722q-9.239,10.819-23.857,10.807a43.825,43.825,0,0,1-15.581-2.618,34.209,34.209,0,0,1-9-5.054c-.129-.108-.258-.2-.386-.312l.376.323c-.129.139-.247.279-.366.418l-4.646,4.648-1.824,1.824q12.138,7.373,28.418,7.362a49.839,49.839,0,0,0,35.4-13.887q14.907-14.037,14.906-34.233Q1015.4,269.375,1000.927,255.913Z" transform="translate(-10.403 -172.444)" fill="#315969"/>
    <g id="Group_22" data-name="Group 22" transform="translate(928.098 88.545)">
      <path id="Path_72" data-name="Path 72" d="M935.547,319.173l4.647-4.648c-1.427,1.653-2.843,3.3-4.271,4.947C935.794,319.365,935.676,319.268,935.547,319.173Z" transform="translate(-935.547 -250.941)" fill="#315969"/>
      <path id="Path_73" data-name="Path 73" d="M986.422,322.047c1.641-.654,5.441-2.157,7.049-2.8a10.761,10.761,0,0,1-1.4,1.321c.129,0,.258-.011.4-.011-.032.976-1.513,2.018-3.66,3.1.022-.129.043-.246.055-.376-.333.279-.655.558-.978.827.323-.162.634-.311.923-.451-.246,1.449-.557,2.876-3.638,2.929a20.189,20.189,0,0,1,2.683-2.468c-5.817,2.725-15.088,5.624-15.174,8.06-23.685-.806,1.525.44-22.16-.376,1.9-.451-1.192.172-1.406.172a4.884,4.884,0,0,1,.783-.215c-.171.226.129-.032.086-.117a7.983,7.983,0,0,1-.826-4.711c.236-2.383,1.159-4.743,1.319-7.137.193-2.9.214-5.805.321-8.714-.375-.075-.751-.161-1.126-.236q-4.765,5.522-9.519,11.033a.01.01,0,0,0-.01.01l-.376-.322-.933-.783-.247-.2v-.01c4.131-4.969,8.284-9.928,12.513-14.8,1.416-1.62,1.578-3.048-.107-4.142-5.656-3.692-6.557-8.124-2.64-13.641a4.845,4.845,0,0,0,.772-3.058c-.558-5.741,3.242-8.692,7.158-11.643a28.076,28.076,0,0,0,2.758-2.994c-3.456-.493-6.042-.858-8.629-1.224-.15-.289-.289-.59-.44-.88,3.745-3.08,7.491-6.16,11.494-9.465,3.841,3.476,7.372,6.686,11.7,10.614-3.852.386-6.579.654-9.3.923-.2.3-.418.59-.622.891,4.5,3.379,9.39,6.427,10.378,12.642,1.62-.976,2.779-1.664,4.367-2.63-.15,3.123-5.076,3.52-3.112,7.04,1.266,2.264,2.221,4.69,3.305,7.007-1.352,1.729-2.8,3.4-4.057,5.216-1.577,2.274-1.234,4.346,1.341,5.58,8.007,3.82,10.2,6.589,16.538,8.017a44,44,0,0,0,6.246.848C998.238,314.964,986.422,321.361,986.422,322.047Z" transform="translate(-935.124 -258.72)" fill="#315969"/>
      <path id="Path_74" data-name="Path 74" d="M986.767,311.835c.376-.15.6-.225.687-.258-.1.043-.344.15-.7.3A.078.078,0,0,0,986.767,311.835Z" transform="translate(-928.409 -251.352)" fill="#315969"/>
    </g>
  </g>
</svg>
